<svg width="8" height="6" viewBox="0 0 8 6" fill="none" xmlns="http://www.w3.org/2000/svg">
<path d="M7.33334 1.1133C7.20843 0.989128 7.03946 0.919434 6.86334 0.919434C6.68722 0.919434 6.51825 0.989128 6.39334 1.1133L4.00001 3.47329L1.64001 1.1133C1.5151 0.989128 1.34613 0.919434 1.17001 0.919434C0.993883 0.919434 0.824915 0.989128 0.700006 1.1133C0.637521 1.17527 0.587925 1.249 0.554079 1.33024C0.520233 1.41148 0.502808 1.49862 0.502808 1.58663C0.502808 1.67464 0.520233 1.76177 0.554079 1.84301C0.587925 1.92425 0.637521 1.99799 0.700006 2.05996L3.52667 4.88663C3.58865 4.94911 3.66238 4.99871 3.74362 5.03256C3.82486 5.0664 3.912 5.08383 4.00001 5.08383C4.08801 5.08383 4.17515 5.0664 4.25639 5.03256C4.33763 4.99871 4.41136 4.94911 4.47334 4.88663L7.33334 2.05996C7.39582 1.99799 7.44542 1.92425 7.47927 1.84301C7.51311 1.76177 7.53054 1.67464 7.53054 1.58663C7.53054 1.49862 7.51311 1.41148 7.47927 1.33024C7.44542 1.249 7.39582 1.17527 7.33334 1.1133Z" fill="#A7B1BC"/>
</svg>
