<svg width="18" height="18" viewBox="0 0 18 18" fill="none" xmlns="http://www.w3.org/2000/svg">
<path d="M7.15829 9.65829L2.33329 14.4916V13.1666C2.33329 12.9456 2.2455 12.7337 2.08922 12.5774C1.93293 12.4211 1.72097 12.3333 1.49996 12.3333C1.27895 12.3333 1.06698 12.4211 0.910704 12.5774C0.754423 12.7337 0.666626 12.9456 0.666626 13.1666V16.5C0.667943 16.6089 0.690592 16.7164 0.733293 16.8166C0.817855 17.0203 0.979668 17.1821 1.18329 17.2666C1.28348 17.3093 1.39106 17.332 1.49996 17.3333H4.83329C5.05431 17.3333 5.26627 17.2455 5.42255 17.0892C5.57883 16.9329 5.66663 16.721 5.66663 16.5C5.66663 16.2789 5.57883 16.067 5.42255 15.9107C5.26627 15.7544 5.05431 15.6666 4.83329 15.6666H3.50829L8.34163 10.8416C8.49855 10.6847 8.5867 10.4719 8.5867 10.25C8.5867 10.028 8.49855 9.81521 8.34163 9.65829C8.18471 9.50137 7.97188 9.41322 7.74996 9.41322C7.52804 9.41322 7.31521 9.50137 7.15829 9.65829ZM17.2666 1.18329C17.1821 0.979668 17.0203 0.817855 16.8166 0.733293C16.7164 0.690592 16.6089 0.667943 16.5 0.666626H13.1666C12.9456 0.666626 12.7337 0.754423 12.5774 0.910704C12.4211 1.06698 12.3333 1.27895 12.3333 1.49996C12.3333 1.72097 12.4211 1.93293 12.5774 2.08922C12.7337 2.2455 12.9456 2.33329 13.1666 2.33329H14.4916L9.65829 7.15829C9.58019 7.23576 9.51819 7.32793 9.47588 7.42948C9.43358 7.53103 9.41179 7.63995 9.41179 7.74996C9.41179 7.85997 9.43358 7.96889 9.47588 8.07044C9.51819 8.17199 9.58019 8.26416 9.65829 8.34163C9.73576 8.41973 9.82793 8.48173 9.92948 8.52404C10.031 8.56634 10.1399 8.58812 10.25 8.58812C10.36 8.58812 10.4689 8.56634 10.5704 8.52404C10.672 8.48173 10.7642 8.41973 10.8416 8.34163L15.6666 3.50829V4.83329C15.6666 5.05431 15.7544 5.26627 15.9107 5.42255C16.067 5.57883 16.2789 5.66663 16.5 5.66663C16.721 5.66663 16.9329 5.57883 17.0892 5.42255C17.2455 5.26627 17.3333 5.05431 17.3333 4.83329V1.49996C17.332 1.39106 17.3093 1.28348 17.2666 1.18329Z" fill="#A7B1BC"/>
</svg>
