<svg width="10" height="9" viewBox="0 0 10 9" fill="none" xmlns="http://www.w3.org/2000/svg">
<path d="M9.00004 0.333252C8.63185 0.333252 8.33337 0.631729 8.33337 0.999919V7.66659C8.33337 8.03477 8.63185 8.33325 9.00004 8.33325C9.36823 8.33325 9.66671 8.03477 9.66671 7.66659V0.999919C9.66671 0.631729 9.36823 0.333252 9.00004 0.333252Z" fill="#A7B1BC"/>
<path d="M3.66671 1.66659C3.29852 1.66659 3.00004 1.96506 3.00004 2.33325V7.66659C3.00004 8.03477 3.29852 8.33325 3.66671 8.33325C4.0349 8.33325 4.33337 8.03477 4.33337 7.66659V2.33325C4.33337 1.96506 4.0349 1.66659 3.66671 1.66659Z" fill="#A7B1BC"/>
<path d="M1.00004 5.66659C0.631851 5.66659 0.333374 5.96506 0.333374 6.33325V7.66659C0.333374 8.03477 0.631851 8.33325 1.00004 8.33325C1.36823 8.33325 1.66671 8.03477 1.66671 7.66659V6.33325C1.66671 5.96506 1.36823 5.66659 1.00004 5.66659Z" fill="#A7B1BC"/>
<path d="M5.66671 3.66659C5.66671 3.2984 5.96518 2.99992 6.33337 2.99992C6.70156 2.99992 7.00004 3.2984 7.00004 3.66659V7.66659C7.00004 8.03477 6.70156 8.33325 6.33337 8.33325C5.96518 8.33325 5.66671 8.03477 5.66671 7.66659V3.66659Z" fill="#A7B1BC"/>
</svg>
