<svg width="24" height="20" viewBox="0 0 24 20" fill="none" xmlns="http://www.w3.org/2000/svg">
<path fill-rule="evenodd" clip-rule="evenodd" d="M0.799988 1.9999C0.799988 1.11625 1.51633 0.399902 2.39999 0.399902H21.6C22.4836 0.399902 23.2 1.11625 23.2 1.9999C23.2 2.88356 22.4836 3.5999 21.6 3.5999H2.39999C1.51633 3.5999 0.799988 2.88356 0.799988 1.9999Z" fill="#8D98AF"/>
<path fill-rule="evenodd" clip-rule="evenodd" d="M0.799988 9.9999C0.799988 9.11625 1.51633 8.3999 2.39999 8.3999H12C12.8836 8.3999 13.6 9.11625 13.6 9.9999C13.6 10.8836 12.8836 11.5999 12 11.5999H2.39999C1.51633 11.5999 0.799988 10.8836 0.799988 9.9999Z" fill="#8D98AF"/>
<path fill-rule="evenodd" clip-rule="evenodd" d="M0.799988 17.9999C0.799988 17.1162 1.51633 16.3999 2.39999 16.3999H21.6C22.4836 16.3999 23.2 17.1162 23.2 17.9999C23.2 18.8836 22.4836 19.5999 21.6 19.5999H2.39999C1.51633 19.5999 0.799988 18.8836 0.799988 17.9999Z" fill="#8D98AF"/>
</svg>
